<?xml version="1.0" encoding="UTF-8"?>
<svg version="1.1" xmlns="http://www.w3.org/2000/svg" width="736" height="736">
<path d="M0 0 C242.88 0 485.76 0 736 0 C736 242.88 736 485.76 736 736 C493.12 736 250.24 736 0 736 C0 493.12 0 250.24 0 0 Z " fill="#FEFEFE" transform="translate(0,0)"/>
<path d="M0 0 C2.06048821 1.25780806 3.92761129 2.62676958 5.8203125 4.125 C6.51511719 4.64449219 7.20992187 5.16398438 7.92578125 5.69921875 C13.08087035 9.61343685 18.05778113 13.75522179 23.05859375 17.86328125 C28.68528977 22.47128266 34.36158975 27.01184467 40.1328125 31.4375 C43.92341112 34.36568729 47.56072242 37.44554598 51.1953125 40.5625 C55.96958802 44.65128105 60.88304422 48.39521163 66.01171875 52.03515625 C69.79230746 54.84825077 73.33404563 57.90564544 76.90307617 60.97949219 C81.48620294 64.90302444 86.25315695 68.48869236 91.109375 72.0703125 C94.18340373 74.40019594 97.05095395 76.89273285 99.921875 79.46484375 C102.56904915 81.77975942 105.3481936 83.90203869 108.13671875 86.04296875 C111.56132437 88.6999044 114.94016817 91.41186302 118.3203125 94.125 C122.38176087 97.38336538 126.4476866 100.63155303 130.5703125 103.8125 C134.83519739 107.10736407 138.98940549 110.53090265 143.15234375 113.953125 C145.41436546 115.79453652 147.69647127 117.59636789 150.0078125 119.375 C154.39330863 122.77356052 158.74099618 126.21779169 163.0703125 129.6875 C163.75633545 130.22987305 164.4423584 130.77224609 165.14916992 131.33105469 C176.39691644 140.39078555 176.39691644 140.39078555 177.05859375 146.2265625 C177.2425082 152.47965369 176.63497892 157.0658145 172.8203125 162.125 C167.16178821 167.42753472 162.14551006 168.79266418 154.49804688 168.65234375 C153.42876953 168.60207031 152.35949219 168.55179688 151.2578125 168.5 C150.15373047 168.47292969 149.04964844 168.44585937 147.91210938 168.41796875 C145.21275165 168.34785556 142.51760827 168.24965284 139.8203125 168.125 C139.82584326 169.07529807 139.83137402 170.02559614 139.83707237 171.00469112 C139.97034248 194.14066176 140.06890138 217.27658254 140.13118553 240.4128561 C140.16210728 251.60146678 140.20425591 262.7898237 140.27294922 273.97827148 C140.33280241 283.7315407 140.37147387 293.48462611 140.38484347 303.23807389 C140.39265716 308.4012767 140.41098633 313.56395374 140.45469284 318.72698784 C140.49552724 323.59030781 140.50795965 328.45288725 140.49895859 333.31636238 C140.50060439 335.09772394 140.51247489 336.87911118 140.53554535 338.6603241 C140.73996218 355.26220105 140.73996218 355.26220105 135.56435585 361.49367619 C130.30748903 366.41078563 125.49252341 367.71894145 118.42578125 367.64257812 C117.61670319 367.6495874 116.80762512 367.65659668 115.97402954 367.66381836 C113.31826743 367.68132258 110.66358412 367.66980304 108.0078125 367.65625 C106.15128374 367.6589471 104.29475636 367.66283134 102.43823242 367.66784668 C98.55471292 367.67373146 94.67156241 367.66521175 90.78808594 367.64648438 C85.82151414 367.6236954 80.85580708 367.63682397 75.88926697 367.66077423 C72.05783629 367.67525985 68.22660908 367.67061357 64.39517212 367.66026306 C62.56442155 367.65760341 60.73365224 367.66083863 58.90292358 367.67018127 C56.33973579 367.68039265 53.77792923 367.66478288 51.21484375 367.64257812 C50.46554596 367.65067505 49.71624817 367.65877197 48.94424438 367.66711426 C43.50213391 367.58020562 40.32795195 366.1936446 35.8203125 363.125 C31.08102145 358.00144211 29.57374538 354.35700409 29.54907227 347.38793945 C29.54384552 346.71906204 29.53861877 346.05018463 29.53323364 345.36103821 C29.52301257 343.91186677 29.51721654 342.46265881 29.51535225 341.01345253 C29.51167798 338.71274991 29.49492014 336.41247433 29.47459412 334.11186218 C29.41930179 327.57180769 29.38860163 321.03168937 29.36401367 314.49145508 C29.34805066 310.48611158 29.31773585 306.48106851 29.27924919 302.47588158 C29.26767005 300.95662843 29.26166947 299.43732133 29.26156807 297.91802406 C29.26044069 285.51485186 28.01134294 274.95100792 19.3828125 265.4375 C18.5371875 264.674375 17.6915625 263.91125 16.8203125 263.125 C16.0778125 262.444375 15.3353125 261.76375 14.5703125 261.0625 C5.55415406 254.71020655 -4.28068212 252.72713157 -15.1796875 254.125 C-19.15424398 255.5077941 -22.77016077 257.51152044 -26.4140625 259.59375 C-29.1796875 261.125 -29.1796875 261.125 -31.1796875 261.125 C-31.1796875 261.785 -31.1796875 262.445 -31.1796875 263.125 C-32.84635417 264.79166667 -34.51302083 266.45833333 -36.1796875 268.125 C-43.18737007 276.98765736 -43.60875226 286.82380385 -43.55981255 297.71629715 C-43.55058134 299.96271003 -43.56105843 302.20830951 -43.57643127 304.4546814 C-43.61621419 310.8333842 -43.61773268 317.21201388 -43.61547852 323.59082031 C-43.61542722 327.51233905 -43.6346826 331.4334124 -43.66481209 335.35480881 C-43.67555476 337.55517096 -43.6635623 339.7546538 -43.65098572 341.95498657 C-43.67015674 349.33536021 -44.01046661 354.8771679 -48.1796875 361.125 C-53.62738414 366.43301211 -58.83187199 367.42479258 -66.23950195 367.43139648 C-67.0369281 367.43972 -67.83435425 367.44804352 -68.65594482 367.45661926 C-71.28500288 367.48066037 -73.91381251 367.48948435 -76.54296875 367.49609375 C-78.37753878 367.50506494 -80.21210807 367.51418687 -82.04667664 367.52345276 C-85.89075496 367.53992957 -89.73474632 367.54764042 -93.57885742 367.55053711 C-98.49163309 367.55591791 -103.40358537 367.59359095 -108.31612873 367.63928127 C-112.10553431 367.66910369 -115.89474289 367.6762618 -119.6842556 367.67726326 C-121.49467933 367.68145568 -123.30510417 367.69385055 -125.11541176 367.71478081 C-142.87391032 367.90374962 -142.87391032 367.90374962 -147.57458687 363.72605038 C-153.63184858 357.68407335 -154.72020882 352.17776214 -154.80429953 343.76737398 C-154.80168506 341.22543066 -154.77468995 338.68436652 -154.74731445 336.14257812 C-154.7459029 334.30890949 -154.74669806 332.47523804 -154.74952698 330.64157104 C-154.75095834 325.67914372 -154.72161381 320.7173238 -154.68665719 315.75503731 C-154.65534705 310.56340765 -154.65245927 305.37176322 -154.64653015 300.18005371 C-154.63100542 290.35579688 -154.58999539 280.53181909 -154.5397827 270.70768499 C-154.48384668 259.52032736 -154.45639201 248.33295623 -154.43130553 237.14549351 C-154.37907842 214.13850779 -154.29116267 191.13176955 -154.1796875 168.125 C-154.90559082 168.14594727 -155.63149414 168.16689453 -156.37939453 168.18847656 C-159.68768305 168.2719365 -162.99574961 168.32375539 -166.3046875 168.375 C-167.44679687 168.40851563 -168.58890625 168.44203125 -169.765625 168.4765625 C-176.22248061 168.55164222 -180.31255965 168.55820476 -185.1796875 164.125 C-190.21864767 158.88904345 -191.84511066 153.98510531 -191.78125 146.80078125 C-189.22568516 135.4334961 -175.24423601 127.26657928 -166.36328125 120.5546875 C-163.43167861 118.33374972 -160.57911042 116.02869043 -157.7421875 113.6875 C-153.70402994 110.35543646 -149.61793352 107.09704963 -145.4921875 103.875 C-140.23476468 99.76731905 -135.03757476 95.59165592 -129.8671875 91.375 C-120.47144759 83.72589686 -120.47144759 83.72589686 -116.8046875 80.8125 C-116.13695312 80.28011719 -115.46921875 79.74773437 -114.78125 79.19921875 C-113.1796875 78.125 -113.1796875 78.125 -111.1796875 78.125 C-111.1796875 77.465 -111.1796875 76.805 -111.1796875 76.125 C-109.11063785 74.35110722 -107.04207581 72.6965553 -104.8671875 71.0625 C-104.27228516 70.60294922 -103.67738281 70.14339844 -103.06445312 69.66992188 C-100.45813616 67.68679131 -98.30758692 66.16763314 -95.1796875 65.125 C-95.1796875 64.465 -95.1796875 63.805 -95.1796875 63.125 C-93.41498184 61.74852958 -91.63893873 60.38553511 -89.828125 59.0703125 C-86.73023809 56.79487344 -83.70034972 54.4387204 -80.6796875 52.0625 C-80.08816895 51.5974707 -79.49665039 51.13244141 -78.88720703 50.65332031 C-72.17193795 45.35562058 -65.54965137 39.94381315 -58.91894531 34.54101562 C-53.6579749 30.25779996 -48.35685633 26.03154853 -42.9921875 21.87890625 C-41.8475 20.99271606 -41.8475 20.99271606 -40.6796875 20.08862305 C-39.1018167 18.86710321 -37.5236934 17.64590947 -35.9453125 16.42504883 C-30.36278958 12.0900465 -24.91989612 7.62512252 -19.5625 3.015625 C-13.85115583 -1.5159989 -6.959693 -2.79385525 0 0 Z " fill="#000000" transform="translate(375.1796875,184.875)"/>
<path d="M0 0 C0.66 0.33 1.32 0.66 2 1 C1.24203125 1.93972656 1.24203125 1.93972656 0.46875 2.8984375 C-0.1809375 3.71570313 -0.830625 4.53296875 -1.5 5.375 C-2.1496875 6.18710937 -2.799375 6.99921875 -3.46875 7.8359375 C-5.19253615 9.83026843 -5.19253615 9.83026843 -5 12 C-7.97 11.505 -7.97 11.505 -11 11 C-9.52202738 7.32943063 -7.52384523 5.58914217 -4.375 3.25 C-3.55773437 2.63640625 -2.74046875 2.0228125 -1.8984375 1.390625 C-0.95871094 0.70226562 -0.95871094 0.70226562 0 0 Z " fill="#181818" transform="translate(208,306)"/>
<path d="M0 0 C0.66 0.33 1.32 0.66 2 1 C2 1.66 2 2.32 2 3 C0 4.33333333 -2 5.66666667 -4 7 C-4.33 7.66 -4.66 8.32 -5 9 C-5.66 9 -6.32 9 -7 9 C-6.67 9.99 -6.34 10.98 -6 12 C-7.32 12.33 -8.64 12.66 -10 13 C-10.66 12.01 -11.32 11.02 -12 10 C-8.04 6.7 -4.08 3.4 0 0 Z " fill="#1B1B1B" transform="translate(228,290)"/>
<path d="M0 0 C-4.75 4 -4.75 4 -7 4 C-7 4.66 -7 5.32 -7 6 C-8.62626404 7.38232443 -10.2925002 8.71937515 -12 10 C-11.875 6.6875 -11.875 6.6875 -11 3 C-7.34139468 0.42234625 -4.44339057 -0.39206387 0 0 Z " fill="#161616" transform="translate(351,442)"/>
<path d="M0 0 C0 3 0 3 -2 6 C-2.99 6 -3.98 6 -5 6 C-5 6.99 -5 7.98 -5 9 C-5.99 9.33 -6.98 9.66 -8 10 C-8.66 10.66 -9.32 11.32 -10 12 C-10.99 11.67 -11.98 11.34 -13 11 C-8.71 7.37 -4.42 3.74 0 0 Z " fill="#272727" transform="translate(309,225)"/>
<path d="M0 0 C0.99 0.66 1.98 1.32 3 2 C0.69 3.65 -1.62 5.3 -4 7 C-4.66 6.67 -5.32 6.34 -6 6 C-6 5.34 -6 4.68 -6 4 C-4.03852126 2.61061923 -2.03833424 1.2739589 0 0 Z " fill="#111111" transform="translate(545,345)"/>
<path d="M0 0 C0.66 0.33 1.32 0.66 2 1 C0.35 2.98 -1.3 4.96 -3 7 C-3.99 6.34 -4.98 5.68 -6 5 C-4.02 3.35 -2.04 1.7 0 0 Z M-6 7 C-4 8 -4 8 -4 8 Z " fill="#222222" transform="translate(208,306)"/>
<path d="M0 0 C1.32 0.66 2.64 1.32 4 2 C3.01 3.485 3.01 3.485 2 5 C-0.475 4.01 -0.475 4.01 -3 3 C-2.01 2.01 -1.02 1.02 0 0 Z " fill="#121212" transform="translate(436,234)"/>
<path d="M0 0 C0.99 0 1.98 0 3 0 C1.54744301 3.82946843 -0.42895561 5.12050295 -4 7 C-2.79618552 4.50638429 -1.54571278 2.31856917 0 0 Z " fill="#1C1C1C" transform="translate(325,543)"/>
<path d="M0 0 C0.99 0.33 1.98 0.66 3 1 C2.67 1.66 2.34 2.32 2 3 C1.34 3 0.68 3 0 3 C0 3.66 0 4.32 0 5 C-1.98 5.99 -1.98 5.99 -4 7 C-4.33 6.01 -4.66 5.02 -5 4 C-4.01 4 -3.02 4 -2 4 C-1.34 2.68 -0.68 1.36 0 0 Z " fill="#E1E1E1" transform="translate(264,258)"/>
<path d="M0 0 C0 0.99 0 1.98 0 3 C-2.8125 5.75 -2.8125 5.75 -6 8 C-6.99 7.67 -7.98 7.34 -9 7 C-6.03 4.69 -3.06 2.38 0 0 Z " fill="#262626" transform="translate(276,252)"/>
<path d="M0 0 C1.65 0.33 3.3 0.66 5 1 C4.67 1.99 4.34 2.98 4 4 C3.01 4 2.02 4 1 4 C1 4.66 1 5.32 1 6 C0.34 5.67 -0.32 5.34 -1 5 C-0.67 3.35 -0.34 1.7 0 0 Z " fill="#0F0F0F" transform="translate(404,210)"/>
<path d="M0 0 C2.04119788 1.61594832 4.04072937 3.2856382 6 5 C6 5.66 6 6.32 6 7 C4.125 6.6875 4.125 6.6875 2 6 C0 3 0 3 0 0 Z " fill="#1D1D1D" transform="translate(526,305)"/>
<path d="M0 0 C0.66 0.66 1.32 1.32 2 2 C0.35 3.32 -1.3 4.64 -3 6 C-3.66 5.34 -4.32 4.68 -5 4 C-3.35 2.68 -1.7 1.36 0 0 Z " fill="#E7E7E7" transform="translate(211,301)"/>
</svg>
